<svg xmlns="http://www.w3.org/2000/svg" viewBox="0 0 1312 751"><path fill="#8b5cf6" d="M556.5 515H427.26q-.5 0-.5-.5c-.03-109.11.43-218.22.29-327.29-.12-99.68 88.63-167 178.79-182.81q47.66-8.36 95.23 4.02c78.82 20.53 150.74 78.62 159.43 164.16q.74 7.2.74 19.99.02 160.98.01 321.93a.51.5 0 0 1-.51.5H732.77a.49.49 0 0 1-.49-.49q-.17-143.23.26-286.51.11-37.84-26.08-60.69c-33.24-29-83.22-29.44-118.71-4.32q-25.35 17.94-30.22 48.37-1.04 6.49-1 19.95.39 141.6.51 283.16a.54.53 0 0 1-.54.53Z"/><path fill="#8b5cf6" d="M826.74 750.48c-105.22 14.7-234.36-53.9-246-168.76q-.73-7.15-.76-19.97-.43-161.51-.17-323.03 0-.47.47-.47h129.21q.49 0 .49.5c.08 107.13-.02 193.54-.3 290.25-.12 39.91 27.48 67.67 64.68 76.78 47.39 11.61 103.14-14.03 110.36-66.06q.86-6.2.83-19.96-.35-139.96-.31-280.47 0-.79.79-.79h127.71q.51 0 .51.51.01 159.26 0 318.49 0 13.7-.47 19.99c-7.29 96.82-98.09 160.56-187.04 172.99Z"/><path fill="#8b5cf6" d="M454.41 749.54c-85.38-15.18-168.35-74.95-178.33-167.14-1.88-17.33-1.04-37.02-1.05-54.95q-.06-144.26-.02-288.44a.51.51 0 0 1 .51-.51h129.23q.52 0 .52.53-.08 139.88-.46 279.72-.04 14.56.59 19.98c4.69 40.58 39.74 66 78.62 69.76 26.22 2.53 53.44-7.97 73.64-24.49q.5-.42.57.23c5.03 46.69 37.71 96.22 76.06 122.66a.38.38 0 0 1-.02.64q-44.86 27.7-96.47 39.54-42.46 9.75-83.39 2.47Z"/></svg>